HIERARCHY
ROOT Hips
{
  OFFSET 52.5633 56.0611 -16.276
  CHANNELS 6 Xposition Yposition Zposition Zrotation Xrotation Yrotation
  JOINT spine
  {
    OFFSET 0 7.96568 0.458067
    CHANNELS 3 Zrotation Xrotation Yrotation
    JOINT spine1
    {
      OFFSET 0 10.2431 0
      CHANNELS 3 Zrotation Xrotation Yrotation
      JOINT spine2
      {
        OFFSET 0 9.81475 0
        CHANNELS 3 Zrotation Xrotation Yrotation
        JOINT Neck
        {
          OFFSET 0 25.1986 1.20138
          CHANNELS 3 Zrotation Xrotation Yrotation
          JOINT Head
          {
            OFFSET 0 7.61315 0
            CHANNELS 3 Zrotation Xrotation Yrotation
            End Site
            {
              OFFSET 0 18.4281 -6.07733
            }
          }
        }
        JOINT RightShoulder
        {
          OFFSET -4.1327 10.5992 -0.575451
          CHANNELS 3 Zrotation Xrotation Yrotation
          JOINT RightArm
          {
            OFFSET 0 13.9018 0
            CHANNELS 3 Zrotation Xrotation Yrotation
            JOINT RightArmRoll
            {
              OFFSET 0 7.01788 0
              CHANNELS 3 Zrotation Xrotation Yrotation
              JOINT RightForeArm
              {
                OFFSET 0 20.4406 0
                CHANNELS 3 Zrotation Xrotation Yrotation
                JOINT RightForeArmRoll
                {
                  OFFSET 0 7.87516 0
                  CHANNELS 3 Zrotation Xrotation Yrotation
                  JOINT RightHand
                  {
                    OFFSET 0 15.8037 0
                    CHANNELS 3 Zrotation Xrotation Yrotation
                    End Site
                    {
                      OFFSET 0 0 0
                    }
                  }
                }
              }
            }
          }
        }
        JOINT LeftShoulder
        {
          OFFSET 4.1327 10.5992 -0.575451
          CHANNELS 3 Zrotation Xrotation Yrotation
          JOINT LeftArm
          {
            OFFSET 0 13.9018 0
            CHANNELS 3 Zrotation Xrotation Yrotation
            JOINT LeftArmRoll
            {
              OFFSET 0 7.01789 0
              CHANNELS 3 Zrotation Xrotation Yrotation
              JOINT LeftForeArm
              {
                OFFSET 0 20.4406 0
                CHANNELS 3 Zrotation Xrotation Yrotation
                JOINT LeftForeArmRoll
                {
                  OFFSET 0 7.87515 0
                  CHANNELS 3 Zrotation Xrotation Yrotation
                  JOINT LeftHand
                  {
                    OFFSET 0 15.8037 0
                    CHANNELS 3 Zrotation Xrotation Yrotation
                    End Site
                    {
                      OFFSET 0 0 0
                    }
                  }
                }
              }
            }
          }
        }
      }
    }
  }
  JOINT RightUpLeg
  {
    OFFSET -7.06048 -1.2947 -1.0861
    CHANNELS 3 Zrotation Xrotation Yrotation
    JOINT RightUpLegRoll
    {
      OFFSET 0 18.5308 0
      CHANNELS 3 Zrotation Xrotation Yrotation
      JOINT RightLeg
      {
        OFFSET 0 -22.9476 0
        CHANNELS 3 Zrotation Xrotation Yrotation
        JOINT RightLegRoll
        {
          OFFSET 0 23.0226 0
          CHANNELS 3 Zrotation Xrotation Yrotation
          JOINT RightFoot
          {
            OFFSET 0 19.1625 0
            CHANNELS 3 Zrotation Xrotation Yrotation
            JOINT RightToeBase
            {
              OFFSET 0 16.0188 0
              CHANNELS 3 Zrotation Xrotation Yrotation
              End Site
              {
                OFFSET 0.00678979 7.75782 -0.894206
              }
            }
          }
        }
      }
    }
  }
  JOINT LeftUpLeg
  {
    OFFSET 7.06048 -1.2947 -1.0861
    CHANNELS 3 Zrotation Xrotation Yrotation
    JOINT LeftUpLegRoll
    {
      OFFSET 0 18.5309 0
      CHANNELS 3 Zrotation Xrotation Yrotation
      JOINT LeftLeg
      {
        OFFSET 0 22.9475 0
        CHANNELS 3 Zrotation Xrotation Yrotation
        JOINT LeftLegRoll
        {
          OFFSET 0 23.2355 0
          CHANNELS 3 Zrotation Xrotation Yrotation
          JOINT LeftFoot
          {
            OFFSET 0 18.9496 0
            CHANNELS 3 Zrotation Xrotation Yrotation
            JOINT LeftToeBase
            {
              OFFSET 0 16.0188 0
              CHANNELS 3 Zrotation Xrotation Yrotation
              End Site
              {
                OFFSET -0.0304289 7.75782 -0.894206
              }
            }
          }
        }
      }
    }
  }
}
MOTION
Frames: 8
Frame Time: 0.00208333
52.7066 59.17 -10.3585 2.55983 18.1114 6.80142 -0.903344 1.28361 -0.0150459 -1.81582 6.56857 0.108211 -1.82126 8.21317 0.139081 5.97708 -1.38184 -3.42725 -2.00305 4.25385 -2.74424 64.1467 -3.53791 -2.62024 103.229 14.2648 -31.6849 5.97116e-006 2.78267e-006 2.99203e-006 21.0618 75.0341 -20.938 -5.7695e-006 2.04862e-006 -3.00635 8.02999 -4.95139 0.697642 -55.7535 -0.261934 -0.201133 -104.453 26.362 40.7237 7.95139e-015 -3.18055e-015 -0 -33.474 72.7133 30.8669 -3.00084e-005 -1.47112e-006 3.00837 -8.0293 -4.95143 -0.697662 39.4465 74.7641 138.522 180 7.01621e-015 179.314 -163.39 79.0021 162.501 8.84859e-007 -1.88842e-007 1.5661 -13.0186 63.1014 16.4755 8.1365 25.2327 -3.48774 6.78003 80.4647 170.787 4.5067e-006 -1.99009e-005 -1.00851 4.39966 -79.4437 6.69416 1.26356e-006 7.58204e-007 -1.5661 13.2653 63.6361 -16.7548 -8.13649 25.2327 3.48774 
52.6709 59.0487 -10.4064 2.50704 17.9296 6.77733 -0.8963 1.26429 -0.0115992 -1.80168 6.52991 0.113732 -1.80714 8.17452 0.144368 5.96561 -1.2721 -3.411 -1.9911 4.24603 -2.72286 64.1483 -3.48725 -2.59239 103.21 14.3925 -31.7177 5.97116e-006 2.78267e-006 2.99203e-006 21.2803 74.9106 -21.0597 -5.7695e-006 2.04862e-006 -3.00635 8.02999 -4.95139 0.697642 -55.7206 -0.2848 -0.190249 -104.487 26.4424 40.7103 -3.97569e-015 6.36111e-015 3.18055e-015 -33.5134 72.5729 30.8088 -3.00084e-005 -1.47112e-006 3.00837 -8.0293 -4.95143 -0.697662 39.2189 74.8278 138.788 180 7.0162e-015 179.31 -163.097 79.1151 162.237 8.84859e-007 -1.88842e-007 1.56894 -13.0022 63.0869 16.4692 8.1365 25.2327 -3.48774 6.26962 80.4521 171.322 4.5067e-006 -1.99009e-005 -1.00929 4.69101 -79.5957 6.95085 1.26356e-006 7.58204e-007 -1.57228 13.2561 63.6195 -16.7461 -8.13649 25.2327 3.48774 
52.6425 58.9144 -10.4623 2.45239 17.748 6.75237 -0.889025 1.2449 -0.00839507 -1.78707 6.4911 0.118731 -1.79253 8.13571 0.149125 5.95192 -1.15894 -3.39314 -1.97741 4.2332 -2.69991 64.1514 -3.4347 -2.56362 103.19 14.525 -31.7497 5.97116e-006 2.78267e-006 2.99203e-006 21.502 74.7852 -21.1829 -5.7695e-006 2.04862e-006 -3.00635 8.02999 -4.95139 0.697642 -55.6905 -0.309333 -0.17795 -104.52 26.5242 40.695 7.95139e-016 1.35174e-014 9.54166e-015 -33.5514 72.4324 30.7495 -3.00084e-005 -1.47112e-006 3.00837 -8.0293 -4.95143 -0.697662 38.9911 74.8936 139.056 180 7.01619e-015 179.305 -162.808 79.2262 161.977 8.84859e-007 -1.88842e-007 1.57169 -12.9864 63.0729 16.463 8.1365 25.2327 -3.48774 5.75427 80.44 171.863 4.5067e-006 -1.99009e-005 -1.0099 4.98877 -79.7446 7.21372 1.26356e-006 7.58204e-007 -1.57836 13.2467 63.6028 -16.7373 -8.13649 25.2327 3.48774 
52.6123 58.7865 -10.5106 2.39704 17.566 6.72766 -0.881631 1.22567 -0.00549487 -1.77221 6.45262 0.123108 -1.77767 8.09724 0.153253 5.93574 -1.04423 -3.37425 -1.96208 4.21672 -2.67614 64.1566 -3.38199 -2.53491 103.169 14.6614 -31.7807 5.97116e-006 2.78267e-006 2.99203e-006 21.7248 74.6585 -21.3061 -5.7695e-006 2.04862e-006 -3.00635 8.02999 -4.95139 0.697642 -55.6653 -0.334941 -0.16436 -104.549 26.6082 40.6773 8.74653e-015 -1.43125e-014 3.18055e-015 -33.589 72.2915 30.6895 -3.00084e-005 -1.47112e-006 3.00837 -8.0293 -4.95143 -0.697662 38.7719 74.9609 139.316 180 7.01619e-015 179.301 -162.524 79.3346 161.721 8.84859e-007 -1.88842e-007 1.57438 -12.9713 63.0593 16.457 8.1365 25.2327 -3.48774 5.24554 80.43 172.399 4.5067e-006 -1.99009e-005 -1.01045 5.29015 -79.8892 7.4803 1.26356e-006 7.58204e-007 -1.58433 13.2374 63.5863 -16.7287 -8.13649 25.2327 3.48774 
52.5585 58.707 -10.5664 2.34215 17.3835 6.70429 -0.874232 1.20685 -0.00296003 -1.75732 6.41497 0.126759 -1.76278 8.05959 0.156655 5.9168 -0.929866 -3.35494 -1.94519 4.19797 -2.65228 64.1642 -3.33085 -2.50725 103.146 14.8011 -31.8109 5.97116e-006 2.78267e-006 2.99203e-006 21.9467 74.531 -21.4278 -5.7695e-006 2.04862e-006 -3.00635 8.02999 -4.95139 0.697642 -55.6472 -0.361029 -0.149606 -104.573 26.6955 40.6567 -3.97569e-015 3.18055e-015 1.59028e-014 -33.6269 72.1496 30.629 -3.00084e-005 -1.47112e-006 3.00837 -8.0293 -4.95143 -0.697662 38.5707 75.0295 139.557 180 7.01618e-015 179.297 -162.244 79.4398 161.468 8.84859e-007 -1.88842e-007 1.57703 -12.9573 63.0463 16.4512 8.1365 25.2327 -3.48774 4.75464 80.4236 172.917 4.5067e-006 -1.99009e-005 -1.01101 5.59204 -80.0283 7.74784 1.26356e-006 7.58204e-007 -1.59019 13.2285 63.5702 -16.7203 -8.13649 25.2327 3.48774 
52.5317 58.5762 -10.6118 2.28887 17.1999 6.68337 -0.866939 1.18868 -0.000851982 -1.74264 6.37863 0.129582 -1.74808 8.02326 0.159232 5.89483 -0.817727 -3.3358 -1.92684 4.17833 -2.62909 64.1749 -3.283 -2.48164 103.122 14.9435 -31.84 5.97116e-006 2.78267e-006 2.99203e-006 22.1656 74.4033 -21.5467 -5.7695e-006 2.04862e-006 -3.00635 8.02999 -4.95139 0.697642 -55.6383 -0.387003 -0.133813 -104.59 26.7868 40.6326 7.15625e-015 -8.74653e-015 -3.18055e-015 -33.666 72.0065 30.5687 -3.00084e-005 -1.47112e-006 3.00837 -8.0293 -4.95143 -0.697662 38.3968 75.0991 139.771 180 7.01618e-015 179.293 -161.969 79.5412 161.219 8.84859e-007 -1.88842e-007 1.57966 -12.9444 63.0337 16.4456 8.1365 25.2327 -3.48774 4.2924 80.4226 173.407 4.5067e-006 -1.99009e-005 -1.01167 5.89107 -80.1608 8.01331 1.26356e-006 7.58204e-007 -1.59593 13.2203 63.5547 -16.7122 -8.13649 25.2327 3.48774 
52.498 58.4708 -10.6678 2.2384 17.0149 6.66601 -0.859866 1.17141 0.000767879 -1.72839 6.34409 0.131476 -1.7338 7.98873 0.160885 5.86958 -0.709699 -3.31742 -1.90713 4.15916 -2.6073 64.1891 -3.24017 -2.45904 103.095 15.0879 -31.868 5.97116e-006 2.78267e-006 2.99203e-006 22.3797 74.276 -21.6613 -5.7695e-006 2.04862e-006 -3.00635 8.02999 -4.95139 0.697642 -55.6409 -0.412269 -0.117106 -104.597 26.8833 40.6045 -1.59028e-015 7.15625e-015 1.27222e-014 -33.7071 71.8618 30.5089 -3.00084e-005 -1.47112e-006 3.00837 -8.0293 -4.95143 -0.697662 38.26 75.1694 139.946 180 7.01617e-015 179.289 -161.699 79.6381 160.973 8.84859e-007 -1.88842e-007 1.58231 -12.933 63.0218 16.4402 8.1365 25.2327 -3.48774 3.86942 80.4286 173.855 4.5067e-006 -1.99009e-005 -1.01251 6.18359 -80.2856 8.27339 1.26356e-006 7.58204e-007 -1.60153 13.2131 63.5401 -16.7045 -8.13649 25.2327 3.48774 
52.4781 58.3544 -10.7163 2.19194 16.8282 6.65329 -0.853125 1.15528 0.00183814 -1.7148 6.31184 0.132339 -1.72018 7.95648 0.161516 5.8408 -0.607669 -3.30039 -1.88615 4.14186 -2.58764 64.2074 -3.2041 -2.44046 103.065 15.2334 -31.8949 5.97116e-006 2.78267e-006 2.99203e-006 22.587 74.1497 -21.7705 -5.7695e-006 2.04862e-006 -3.00635 8.02999 -4.95139 0.697642 -55.6571 -0.436232 -0.0996099 -104.595 26.9858 40.5718 -6.36111e-015 3.18055e-015 6.36111e-015 -33.7511 71.7149 30.4499 -3.00084e-005 -1.47112e-006 3.00837 -8.0293 -4.95143 -0.697662 38.1699 75.2402 140.072 180 7.01616e-015 179.285 -161.433 79.73 160.731 8.84859e-007 -1.88842e-007 1.58499 -12.9232 63.0106 16.435 8.1365 25.2327 -3.48774 3.49611 80.4434 174.251 4.5067e-006 -1.99009e-005 -1.01363 6.46565 -80.4016 8.52449 1.26356e-006 7.58204e-007 -1.607 13.2072 63.5267 -16.6974 -8.13649 25.2327 3.48774 
